<svg xmlns="http://www.w3.org/2000/svg" viewBox="0 0 898 248"><path fill="#005c95" d="M90 215.76H47.17l-6 16.52H18.73l37.06-95.81h25.56l36.92 95.81H96Zm-37.37-17.67h31.74l-15.8-44Zm116.04 25.42a27.19 27.19 0 0 1-21.4 10.49c-17.53 0-30.74-13.21-30.74-36.34 0-22.69 13.07-36.48 30.74-36.48a26.72 26.72 0 0 1 21.4 10.63v-35.34h18.38v95.81h-18.38Zm0-38.2c-3.16-4.6-9.62-7.9-15.8-7.9-10.34 0-17.52 8.19-17.52 20.25s7.18 20.11 17.52 20.11c6.18 0 12.64-3.3 15.8-7.9Zm22.82-22.41H211l18.1 48.26 18.1-48.26h19.67L239 232.28h-19.65Zm109.29-1.72c20.68 0 34.76 15.51 34.76 38.21v4H284c1.15 8.76 8.19 16.08 20 16.08 6.46 0 14.08-2.58 18.53-6.89l8 11.78c-7 6.46-17.81 9.62-28.58 9.62-21.11 0-37.06-14.22-37.06-36.48-.02-20.09 14.78-36.32 35.89-36.32m-17.09 29.87h34.18c-.43-6.6-5-15.36-17.09-15.36-11.35 0-16.23 8.47-17.09 15.36m106.13-.71c0-9.63-5-12.93-12.78-12.93a19.76 19.76 0 0 0-15.8 8.19v46.68H343V162.9h18.24v9a31.78 31.78 0 0 1 24.27-10.77c15.23 0 22.56 8.62 22.56 22.12v49h-18.25ZM424 215v-36.15h-11.49V162.9H424v-19h18.38v19h14.08v15.95h-14.08v31.31c0 4.31 2.3 7.61 6.32 7.61 2.73 0 5.32-1 6.32-2l3.88 13.79c-2.73 2.44-7.61 4.45-15.23 4.45C430.89 234 424 227.39 424 215m121.93-22.94h-45.24v40.22h-20.4v-95.81h20.4v37.64h45.24v-37.64h20.54v95.81h-20.54Zm64.63-30.88c20.68 0 34.75 15.51 34.75 38.21v4h-51.56c1.15 8.76 8.19 16.08 20 16.08 6.47 0 14.08-2.58 18.54-6.89l8 11.78c-7 6.46-17.81 9.62-28.59 9.62-21.11 0-37.05-14.22-37.05-36.48 0-20.09 14.79-36.32 35.91-36.32m-17.1 29.87h34.19c-.43-6.6-5-15.36-17.09-15.36-11.35 0-16.23 8.47-17.1 15.36m109.75 32.46A27.19 27.19 0 0 1 681.8 234c-17.52 0-30.73-13.21-30.73-36.34 0-22.69 13.07-36.48 30.73-36.48a26.73 26.73 0 0 1 21.41 10.63v-8.91h18.38v69.38h-18.38Zm0-38.06c-3.17-4.59-9.63-7.9-15.8-7.9-10.35 0-17.53 8-17.53 20.11s7.18 20.11 17.53 20.11c6.17 0 12.63-3.3 15.8-7.9Zm30.72-48.98h18.24v95.81h-18.24ZM771 215v-36.15h-11.51V162.9H771v-19h18.39v19h14.07v15.95h-14.09v31.31c0 4.31 2.3 7.61 6.32 7.61 2.73 0 5.31-1 6.32-2l3.88 13.79c-2.73 2.44-7.61 4.45-15.23 4.45C777.88 234 771 227.39 771 215m89-24.95c0-9.62-5-12.64-12.93-12.64a20.21 20.21 0 0 0-15.8 8.19v46.68h-18.21v-95.81h18.24V172a32.15 32.15 0 0 1 24.42-10.77c15.23 0 22.55 8.33 22.55 21.83v49.27H860Z"/><path fill="#9098a1" d="m653.08 63.12 5.64 35.66-25.25 4-5.65-35.66zm2.91-4-32.18 5.1 6.75 42.57 32.17-5.09L656 59.11Z"/><path fill="#005c95" d="m588.151 32.743 20.83-3.299a21.33 21.33 0 0 1 24.41 17.76l4.322 27.29-27.33 4.329a21.33 21.33 0 0 1-24.404-17.73l-3.299-20.831a6.58 6.58 0 0 1 5.47-7.528Z"/><path fill="#1ba8e1" d="m659.76 21.373 20.83-3.3a6.59 6.59 0 0 1 7.54 5.479l3.3 20.83A21.34 21.34 0 0 1 673.68 68.8l-27.329 4.329-4.33-27.34a21.34 21.34 0 0 1 17.739-24.415"/><path fill="#82c342" d="m614.642 86.656 24.376-3.861 3.527 22.263a18 18 0 0 1-14.963 20.594l-16.425 2.601a5.88 5.88 0 0 1-6.728-4.888l-2.945-18.598a15.83 15.83 0 0 1 13.158-18.111"/><path fill="#005d56" d="m647.672 81.415 24.386-3.862A15.83 15.83 0 0 1 690.17 90.71l2.942 18.579a5.88 5.88 0 0 1-4.888 6.727l-16.455 2.606a18 18 0 0 1-20.594-14.962l-3.523-22.243Z"/></svg>